<?xml version="1.0" encoding="UTF-8"?>
<svg version="1.1" xmlns="http://www.w3.org/2000/svg" width="242" height="186">
<path d="M0 0 C79.86 0 159.72 0 242 0 C242 61.38 242 122.76 242 186 C162.14 186 82.28 186 0 186 C0 124.62 0 63.24 0 0 Z " fill="#FDFE1F" transform="translate(0,0)"/>
<path d="M0 0 C2.97 0 5.94 0 9 0 C11.3968665 2.3968665 11.28281133 3.07028314 11.4140625 6.3515625 C11.45273438 7.20234375 11.49140625 8.053125 11.53125 8.9296875 C11.5621875 9.81914063 11.593125 10.70859375 11.625 11.625 C11.66367188 12.5221875 11.70234375 13.419375 11.7421875 14.34375 C11.83659357 16.5622927 11.92216748 18.78082403 12 21 C12.99 21 13.98 21 15 21 C14.87625 20.278125 14.7525 19.55625 14.625 18.8125 C15.06191575 15.53563191 16.05005313 13.96517658 18.6796875 11.9453125 C23.96450322 9.79223943 30.43116968 10.38555298 36 11 C36.99 11.66 37.98 12.32 39 13 C39.99 12.67 40.98 12.34 42 12 C45.05694714 11.61234366 47.95645272 11.46723753 51 12 C53.0625 14.5 53.0625 14.5 54 17 C55.70840281 15.36587557 56.93453047 14.13093906 58 12 C60.64 12 63.28 12 66 12 C66 12.99 66 13.98 66 15 C65.34 15 64.68 15 64 15 C63.71125 15.763125 63.4225 16.52625 63.125 17.3125 C62 20 62 20 60 23 C60.24322493 27.49966125 62.27789244 30.50014742 65 34 C67.10039331 35.38868516 67.10039331 35.38868516 69 36 C69 36.99 69 37.98 69 39 C66.47524538 40.26237731 64.68799534 40.09856404 61.875 40.0625 C60.96492188 40.05347656 60.05484375 40.04445312 59.1171875 40.03515625 C58.41851562 40.02355469 57.71984375 40.01195312 57 40 C56.505 38.02 56.505 38.02 56 36 C54.01508358 36.26676204 54.01508358 36.26676204 52 37 C51.67 37.99 51.34 38.98 51 40 C50.08476562 40.06058594 49.16953125 40.12117188 48.2265625 40.18359375 C47.03804687 40.26738281 45.84953125 40.35117188 44.625 40.4375 C43.44164062 40.51871094 42.25828125 40.59992188 41.0390625 40.68359375 C38.08481099 40.81084936 38.08481099 40.81084936 36 42 C35.45859375 41.85691406 34.9171875 41.71382812 34.359375 41.56640625 C31.00196467 40.76040543 27.67995641 40.89535498 24.25 40.9375 C23.55261719 40.94201172 22.85523438 40.94652344 22.13671875 40.95117188 C20.42444197 40.9628998 18.71220967 40.98083347 17 41 C16.34 39.68 15.68 38.36 15 37 C13.7315625 37.495 13.7315625 37.495 12.4375 38 C8.25733112 39.21604913 4.02248275 40.01124138 0 38 C0 25.46 0 12.92 0 0 Z " fill="#F8F944" transform="translate(107,41)"/>
<path d="M0 0 C5.61 0 11.22 0 17 0 C17.33 0.99 17.66 1.98 18 3 C19.98 2.67 21.96 2.34 24 2 C24 1.34 24 0.68 24 0 C26.4377963 -0.05397335 28.87439685 -0.09365616 31.3125 -0.125 C32.00279297 -0.14175781 32.69308594 -0.15851563 33.40429688 -0.17578125 C37.17135396 -0.21217794 38.78431704 -0.14378864 42 2 C43.0625 3.9375 43.0625 3.9375 44 6 C44.66 6.99 45.32 7.98 46 9 C46.74090337 13.87286447 47.16078586 18.89563053 44.7265625 23.30859375 C42.66707855 25.72472005 40.84973193 27.57513404 38 29 C32.88997244 29.25550138 28.7154027 29.24542986 24 27 C22.625 24.875 22.625 24.875 22 23 C21.01 23 20.02 23 19 23 C17.71553081 20.43106162 17.67022856 18.23423663 17.4375 15.375 C17.31181641 13.87066406 17.31181641 13.87066406 17.18359375 12.3359375 C17.12300781 11.56507812 17.06242187 10.79421875 17 10 C15.02 10.33 13.04 10.66 11 11 C10.67 16.94 10.34 22.88 10 29 C6.7 29 3.4 29 0 29 C0 19.43 0 9.86 0 0 Z " fill="#191802" transform="translate(130,111)"/>
<path d="M0 0 C8 0 8 0 9.67089844 1.26586914 C9.9805957 1.84973389 10.29029297 2.43359863 10.609375 3.03515625 C10.97160156 3.68033203 11.33382812 4.32550781 11.70703125 4.99023438 C12.05121094 5.67408203 12.39539062 6.35792969 12.75 7.0625 C13.10964844 7.71927734 13.46929687 8.37605469 13.83984375 9.05273438 C14.52268753 10.30379293 15.19338929 11.56162733 15.84667969 12.82836914 C17.49148991 15.92544512 19.26016586 18.95529025 21 22 C21.33 14.74 21.66 7.48 22 0 C24.31 0 26.62 0 29 0 C30 1 30 1 30.11352539 4.41821289 C30.11336628 5.93636988 30.10767226 7.45453229 30.09765625 8.97265625 C30.0962413 9.77029892 30.09482635 10.56794159 30.09336853 11.38975525 C30.08775316 13.94737435 30.07519812 16.50490718 30.0625 19.0625 C30.05748698 20.79231645 30.05292373 22.52213426 30.04882812 24.25195312 C30.03777875 28.50133553 30.02050386 32.75065312 30 37 C27.20240235 37.187751 24.75714767 37.34950478 22 37 C20.11376953 35.28759766 20.11376953 35.28759766 18.8828125 32.9140625 C18.42132813 32.06585938 17.95984375 31.21765625 17.484375 30.34375 C16.81148437 28.99796875 16.81148437 28.99796875 16.125 27.625 C15.19204758 25.86615527 14.25723642 24.10829486 13.3203125 22.3515625 C12.92086426 21.56604004 12.52141602 20.78051758 12.10986328 19.97119141 C11.03531832 17.85582924 11.03531832 17.85582924 9 16 C9 15.01 9 14.02 9 13 C8.34 13 7.68 13 7 13 C7 20.92 7 28.84 7 37 C4.69 37 2.38 37 0 37 C0 24.79 0 12.58 0 0 Z " fill="#141301" transform="translate(37,103)"/>
<path d="M0 0 C1.6328125 1.05078125 1.6328125 1.05078125 3.9453125 3.17578125 C3.9453125 3.83578125 3.9453125 4.49578125 3.9453125 5.17578125 C4.9353125 5.50578125 5.9253125 5.83578125 6.9453125 6.17578125 C6.9453125 7.49578125 6.9453125 8.81578125 6.9453125 10.17578125 C3.6953125 10.42578125 3.6953125 10.42578125 -0.0546875 10.17578125 C-0.6940625 9.51578125 -1.3334375 8.85578125 -1.9921875 8.17578125 C-4.32300981 5.91558992 -4.93299408 5.81375665 -8.0546875 5.67578125 C-11.11300891 5.8295516 -11.93907383 6.08981211 -14.4921875 7.98828125 C-17.62228848 12.37042262 -17.58394184 16.98361366 -17.0546875 22.17578125 C-15.66488252 25.14491007 -14.35811722 26.87235153 -12.0546875 29.17578125 C-7.91471183 29.37292295 -4.97765183 29.48343603 -1.0546875 28.17578125 C0.17051514 25.16730707 0.17051514 25.16730707 0.9453125 22.17578125 C-1.6946875 22.17578125 -4.3346875 22.17578125 -7.0546875 22.17578125 C-7.0546875 20.19578125 -7.0546875 18.21578125 -7.0546875 16.17578125 C-2.1046875 16.17578125 2.8453125 16.17578125 7.9453125 16.17578125 C7.9453125 22.77578125 7.9453125 29.37578125 7.9453125 36.17578125 C6.2953125 36.17578125 4.6453125 36.17578125 2.9453125 36.17578125 C2.9453125 34.85578125 2.9453125 33.53578125 2.9453125 32.17578125 C1.9965625 32.83578125 1.0478125 33.49578125 0.0703125 34.17578125 C-4.560359 36.81517008 -8.85041349 36.85647272 -14.0546875 36.17578125 C-18.92049866 34.70685713 -21.64837933 32.15666732 -24.13671875 27.82421875 C-26.09285576 22.18055537 -25.97833348 16.02341577 -25.0546875 10.17578125 C-19.82321177 0.92260855 -10.56468183 -4.2379237 0 0 Z " fill="#161501" transform="translate(66.0546875,43.82421875)"/>
<path d="M0 0 C2.10511789 1.55934658 3.29512218 3.02219549 4.6875 5.25 C5.07207675 8.63427538 4.82249016 11.83024929 4.6875 15.25 C-0.9225 15.25 -6.5325 15.25 -12.3125 15.25 C-10.85961014 19.8341963 -10.85961014 19.8341963 -9.3125 21.25 C-6.85440002 21.5000773 -6.85440002 21.5000773 -4.3125 21.25 C-3.6525 20.59 -2.9925 19.93 -2.3125 19.25 C1.3125 19.125 1.3125 19.125 4.6875 19.25 C4.38645795 22.05972581 3.64025592 23.30669289 1.8125 25.5 C-2.83321885 28.10160256 -7.10750423 28.14925256 -12.3125 27.25 C-15.97985838 25.38427593 -17.99203881 23.21138356 -19.3125 19.25 C-19.43203769 17.27345815 -19.48776196 15.29261544 -19.5 13.3125 C-19.51417969 12.27222656 -19.52835937 11.23195313 -19.54296875 10.16015625 C-19.31122957 7.23395811 -18.93570933 5.66606405 -17.3125 3.25 C-11.65893548 -0.82056646 -6.89576718 -2.23646503 0 0 Z " fill="#1B1A02" transform="translate(90.3125,112.75)"/>
<path d="M0 0 C1.87425348 -0.08188486 3.74957054 -0.13958757 5.625 -0.1875 C6.66914062 -0.22230469 7.71328125 -0.25710937 8.7890625 -0.29296875 C12 0 12 0 18 3 C18.33 10.59 18.66 18.18 19 26 C16.69 26 14.38 26 12 26 C12 25.34 12 24.68 12 24 C11.34 24.495 10.68 24.99 10 25.5 C5.88248556 27.55875722 3.58746602 27.50971845 -1 27 C-3.5 25.5 -3.5 25.5 -5 23 C-5.76424137 19.11510635 -5.61286967 16.10900225 -3.6875 12.625 C0.54248126 10.06733691 5.15044636 9.63545875 10 9 C10 8.01 10 7.02 10 6 C8.02 6 6.04 6 4 6 C3.67 6.66 3.34 7.32 3 8 C1.02 8 -0.96 8 -3 8 C-2.37063561 5.06296616 -1.37579827 2.66211372 0 0 Z " fill="#3E3D0A" transform="translate(84,53)"/>
<path d="M0 0 C5.61 0 11.22 0 17 0 C17.33 0.99 17.66 1.98 18 3 C19.98 2.67 21.96 2.34 24 2 C24 1.34 24 0.68 24 0 C26.4377963 -0.05397335 28.87439685 -0.09365616 31.3125 -0.125 C32.00279297 -0.14175781 32.69308594 -0.15851563 33.40429688 -0.17578125 C37.17135396 -0.21217794 38.78431704 -0.14378864 42 2 C41.34 2.33 40.68 2.66 40 3 C39.34 2.67 38.68 2.34 38 2 C32.88335036 1.49739834 28.47178626 1.15897928 23.9375 3.75 C20.92561933 7.24766788 19.72523361 9.86694786 19.8125 14.5 C19.81894531 15.2528125 19.82539063 16.005625 19.83203125 16.78125 C19.99696437 18.95990143 20.40399094 20.90204811 21 23 C20.34 23 19.68 23 19 23 C17.71553081 20.43106162 17.67022856 18.23423663 17.4375 15.375 C17.31181641 13.87066406 17.31181641 13.87066406 17.18359375 12.3359375 C17.12300781 11.56507812 17.06242187 10.79421875 17 10 C15.02 10.33 13.04 10.66 11 11 C10.67 16.94 10.34 22.88 10 29 C6.7 29 3.4 29 0 29 C0 19.43 0 9.86 0 0 Z " fill="#C8C931" transform="translate(130,111)"/>
<path d="M0 0 C2.64 0 5.28 0 8 0 C9.80304155 5.30094216 11.50723624 10.60308488 13 16 C13.33 16 13.66 16 14 16 C15.32 10.72 16.64 5.44 18 0 C20.64 0 23.28 0 26 0 C23.58992582 10.02017564 19.86518433 19.8354028 16.3125 29.5 C15.93738281 30.5209375 15.56226563 31.541875 15.17578125 32.59375 C14 35 14 35 11 37 C8.66800612 37.07905064 6.33167378 37.08798769 4 37 C4 35.02 4 33.04 4 31 C5.32 30.67 6.64 30.34 8 30 C7.23769561 20.54742552 4.84866433 12.36798511 0.76953125 3.8125 C0 2 0 2 0 0 Z " fill="#191702" transform="translate(176,53)"/>
<path d="M0 0 C1.32 0.33 2.64 0.66 4 1 C4 1.66 4 2.32 4 3 C4.99 3 5.98 3 7 3 C8.01622308 8.18273772 8.04723881 9.88190297 6 15 C1.05 15 -3.9 15 -9 15 C-9 16.98 -9 18.96 -9 21 C-6.36 21 -3.72 21 -1 21 C-1.37048807 23.5934165 -2.05601102 25.08065587 -3.5625 27.25 C-6.40268423 29.28910663 -8.54801952 29.62990017 -12.03125 29.4609375 C-15.38828586 28.67496482 -16.96360573 26.65348344 -19 24 C-20.76303691 18.71088926 -20.67478867 13.76730366 -18.6875 8.5625 C-17 6 -17 6 -14 4 C-7.00882724 3.44514502 -7.00882724 3.44514502 -3.5 5.375 C-2 7 -2 7 -2 9 C0.31 9 2.62 9 5 9 C4.4552207 5.1865449 2.7581556 3.58021008 0 1 C0 0.67 0 0.34 0 0 Z " fill="#F4F528" transform="translate(68,45)"/>
<path d="M0 0 C3 0 6 0 9 0 C9.72832031 -0.04640625 10.45664063 -0.0928125 11.20703125 -0.140625 C12.06683594 -0.17671875 12.92664063 -0.2128125 13.8125 -0.25 C14.66457031 -0.29640625 15.51664063 -0.3428125 16.39453125 -0.390625 C20.22193815 0.18319912 21.54248087 0.95652435 24 4 C24.62065338 7.93170592 24.4687987 11.78241768 24.3125 15.75 C24.28994141 16.82894531 24.26738281 17.90789062 24.24414062 19.01953125 C24.1852565 21.6810935 24.10307001 24.33984228 24 27 C21.69 27 19.38 27 17 27 C16.505 17.1 16.505 17.1 16 7 C13.69 6.34 11.38 5.68 9 5 C8.67 5.99 8.34 6.98 8 8 C7.34 8 6.68 8 6 8 C6 13.94 6 19.88 6 26 C4.02 26 2.04 26 0 26 C0 17.42 0 8.84 0 0 Z " fill="#161501" transform="translate(181,113)"/>
<path d="M0 0 C2.31 0 4.62 0 7 0 C7.33 6.6 7.66 13.2 8 20 C9.98 20 11.96 20 14 20 C15.9756562 17.03651571 16.26376859 16.31979627 16.4140625 12.98828125 C16.45273438 12.23095703 16.49140625 11.47363281 16.53125 10.69335938 C16.57765625 9.51483398 16.57765625 9.51483398 16.625 8.3125 C16.66367188 7.51521484 16.70234375 6.71792969 16.7421875 5.89648438 C16.83632494 3.93136525 16.91924632 1.9657146 17 0 C18.98 0 20.96 0 23 0 C23 8.58 23 17.16 23 26 C21.02 26 19.04 26 17 26 C17 25.34 17 24.68 17 24 C16.525625 24.495 16.05125 24.99 15.5625 25.5 C12.32986409 27.39227468 9.89797534 27.44254896 6.21875 27.59375 C4 27 4 27 1.734375 25.17578125 C-0.86618591 20.41394337 -0.4272589 16.01549346 -0.25 10.6875 C-0.23195313 9.66076172 -0.21390625 8.63402344 -0.1953125 7.57617188 C-0.14831063 5.04982115 -0.08262272 2.52539531 0 0 Z " fill="#1A1902" transform="translate(101,113)"/>
<path d="M0 0 C5.94 0 11.88 0 18 0 C18 0.33 18 0.66 18 1 C15.36 1 12.72 1 10 1 C10.4125 1.94875 10.825 2.8975 11.25 3.875 C19.39316838 22.94004824 19.39316838 22.94004824 19 31 C17.35 31.33 15.7 31.66 14 32 C14 33.98 14 35.96 14 38 C17.09415757 37.57343918 20.05880129 37.07001562 23 36 C24.67613187 33.52985528 24.67613187 33.52985528 25 31 C25.6875 32.6875 25.6875 32.6875 26 35 C24.85213059 37.24356294 23.7904233 39.2095767 22 41 C14.47761194 41.23880597 14.47761194 41.23880597 12 40 C11.65625 37.3828125 11.65625 37.3828125 11.5 34.125 C11.29343551 29.25393659 11.29343551 29.25393659 9 25 C8.401875 24.7525 7.80375 24.505 7.1875 24.25 C3.76932606 22.29675775 1.73553458 19.50783897 0 16 C-0.10132193 11.0352256 1.97896238 7.84495697 5 4 C5.66 4 6.32 4 7 4 C7 3.01 7 2.02 7 1 C4.69 1 2.38 1 0 1 C0 0.67 0 0.34 0 0 Z " fill="#F4F429" transform="translate(166,52)"/>
<path d="M0 0 C1.8253125 0.00193359 1.8253125 0.00193359 3.6875 0.00390625 C7.27273474 0.47319995 8.46649422 0.9391255 11 3.4375 C11.54589844 5.8894043 11.54589844 5.8894043 11.609375 8.76171875 C11.64160156 9.78974609 11.67382812 10.81777344 11.70703125 11.87695312 C11.72121094 12.94880859 11.73539063 14.02066406 11.75 15.125 C11.77964844 16.20845703 11.80929688 17.29191406 11.83984375 18.40820312 C11.91058844 21.08471059 11.96326156 23.76034479 12 26.4375 C9.69 26.4375 7.38 26.4375 5 26.4375 C5 25.7775 5 25.1175 5 24.4375 C4.525625 24.9325 4.05125 25.4275 3.5625 25.9375 C-0.10560943 28.08468601 -3.83575725 28.21973344 -8 27.4375 C-9.765625 26.17578125 -9.765625 26.17578125 -11 24.4375 C-11.39078556 21.71242202 -11.13616953 19.20628044 -11 16.4375 C-9.68 16.1075 -8.36 15.7775 -7 15.4375 C-7 14.4475 -7 13.4575 -7 12.4375 C-5.68 12.7675 -4.36 13.0975 -3 13.4375 C-3.33 16.0775 -3.66 18.7175 -4 21.4375 C-2.02 21.4375 -0.04 21.4375 2 21.4375 C2.99 18.7975 3.98 16.1575 5 13.4375 C4.34 13.4375 3.68 13.4375 3 13.4375 C3.66 11.1275 4.32 8.8175 5 6.4375 C2.36 6.4375 -0.28 6.4375 -3 6.4375 C-3.33 7.4275 -3.66 8.4175 -4 9.4375 C-6.31 9.4375 -8.62 9.4375 -11 9.4375 C-11.34932999 6.29353006 -11.32717669 4.88210396 -9.421875 2.29296875 C-6.16813627 -0.19981495 -4.05987515 -0.06451073 0 0 Z " fill="#0E0D00" transform="translate(133,52.5625)"/>
<path d="M0 0 C3.05074215 -0.28780586 5.96183742 -0.45787911 9 0 C11.0625 2.5 11.0625 2.5 12 5 C13.70840281 3.36587557 14.93453047 2.13093906 16 0 C18.64 0 21.28 0 24 0 C24 0.99 24 1.98 24 3 C23.34 3 22.68 3 22 3 C21.566875 4.1446875 21.566875 4.1446875 21.125 5.3125 C20 8 20 8 18 11 C18.12225395 15.40114231 20.29891075 18.04282875 22.94140625 21.3515625 C24 23 24 23 24 26 C21.36 26 18.72 26 16 26 C15.319375 24.5459375 15.319375 24.5459375 14.625 23.0625 C13.34213779 19.92920418 13.34213779 19.92920418 11 19 C10.690625 19.78375 10.38125 20.5675 10.0625 21.375 C9 24 9 24 8 26 C5.36 26 2.72 26 0 26 C1.11973556 22.64079333 2.55751314 20.23015393 4.75 17.5 C6.08469571 15.75982769 6.08469571 15.75982769 7 14 C6.27805243 9.77144992 3.37464054 6.52366016 1 3 C0.67 2.01 0.34 1.02 0 0 Z " fill="#161501" transform="translate(149,53)"/>
<path d="M0 0 C2.64 0.33 5.28 0.66 8 1 C8 1.33 8 1.66 8 2 C6.02 2 4.04 2 2 2 C2 10.58 2 19.16 2 28 C3.98 28 5.96 28 8 28 C7.94779297 26.10314453 7.94779297 26.10314453 7.89453125 24.16796875 C7.86639323 22.50782577 7.83909309 20.84766844 7.8125 19.1875 C7.78736328 18.35412109 7.76222656 17.52074219 7.73632812 16.66210938 C7.72666016 15.85966797 7.71699219 15.05722656 7.70703125 14.23046875 C7.6913208 13.49207764 7.67561035 12.75368652 7.65942383 11.99291992 C8.09963679 9.41696405 8.92960994 8.55317019 11 7 C14.0625 6.6875 14.0625 6.6875 17 7 C19 9 19 9 19.22705078 10.97119141 C19.21657715 11.75671387 19.20610352 12.54223633 19.1953125 13.3515625 C19.18886719 14.20234375 19.18242187 15.053125 19.17578125 15.9296875 C19.15902344 16.81914063 19.14226562 17.70859375 19.125 18.625 C19.11597656 19.5221875 19.10695312 20.419375 19.09765625 21.34375 C19.0740497 23.56276586 19.0411231 25.78125077 19 28 C18.67 28 18.34 28 18 28 C18 22.06 18 16.12 18 10 C16.02 10 14.04 10 12 10 C11.67 15.94 11.34 21.88 11 28 C8.47524538 29.26237731 6.68799534 29.09856404 3.875 29.0625 C2.96492188 29.05347656 2.05484375 29.04445312 1.1171875 29.03515625 C0.06917969 29.01775391 0.06917969 29.01775391 -1 29 C-1 27.35 -1 25.7 -1 24 C-1.9075 24.804375 -2.815 25.60875 -3.75 26.4375 C-6.10309908 28.41142671 -7.86938046 29.63877467 -11 30 C-11 30.66 -11 31.32 -11 32 C-15.62 32 -20.24 32 -25 32 C-25.66 29.69 -26.32 27.38 -27 25 C-25.515 25.99 -25.515 25.99 -24 27 C-19.80853803 28.19756056 -15.32340481 28.64763554 -11 28 C-7.72018249 25.93228896 -6.15253993 24.22880989 -4 21 C-3.33149477 15.61309155 -2.85144534 9.90584146 -6 5.25 C-6.66 4.5075 -7.32 3.765 -8 3 C-7.05125 3.061875 -6.1025 3.12375 -5.125 3.1875 C-3.578125 3.0946875 -3.578125 3.0946875 -2 3 C-1.34 2.01 -0.68 1.02 0 0 Z " fill="#FAFA3D" transform="translate(179,111)"/>
<path d="M0 0 C2.97 0 5.94 0 9 0 C9.33 6.93 9.66 13.86 10 21 C11.65 21.33 13.3 21.66 15 22 C15 22.33 15 22.66 15 23 C13.00045254 23.04254356 10.99958364 23.04080783 9 23 C8 22 8 22 7.88647461 20.05053711 C7.89171143 19.2178833 7.89694824 18.38522949 7.90234375 17.52734375 C7.90556641 16.62822266 7.90878906 15.72910156 7.91210938 14.80273438 C7.92048828 13.85720703 7.92886719 12.91167969 7.9375 11.9375 C7.94426758 10.5134082 7.94426758 10.5134082 7.95117188 9.06054688 C7.9629989 6.70696935 7.97947975 4.35351523 8 2 C5.69 2 3.38 2 1 2 C1.08097224 5.58425201 1.19380698 9.16681439 1.3125 12.75 C1.33505859 13.76578125 1.35761719 14.7815625 1.38085938 15.828125 C1.41630859 16.8078125 1.45175781 17.7875 1.48828125 18.796875 C1.51446533 19.69760742 1.54064941 20.59833984 1.56762695 21.52636719 C2.07683259 24.439564 2.98790749 25.85839208 5 28 C7.13709792 28.55638941 7.13709792 28.55638941 9.4375 28.375 C10.19933594 28.36210937 10.96117188 28.34921875 11.74609375 28.3359375 C14.17610344 27.97375235 15.87602279 27.20955422 18 26 C18 26.66 18 27.32 18 28 C19.98 28 21.96 28 24 28 C24 19.42 24 10.84 24 2 C22.02 2 20.04 2 18 2 C18 7.61 18 13.22 18 19 C17.67 19 17.34 19 17 19 C16.83210874 16.56257869 16.66563867 14.12507454 16.5 11.6875 C16.45230469 10.99720703 16.40460938 10.30691406 16.35546875 9.59570312 C16.16120511 6.72337641 16 3.87986212 16 1 C16.33 0.67 16.66 0.34 17 0 C19.97 0 22.94 0 26 0 C26 8.91 26 17.82 26 27 C26.99 27 27.98 27 29 27 C29 18.75 29 10.5 29 2 C29.33 2 29.66 2 30 2 C30 10.91 30 19.82 30 29 C28.68 29.33 27.36 29.66 26 30 C25.34 30.33 24.68 30.66 24 31 C22.14638292 31.04514136 20.29126337 31.03867042 18.4375 31 C16.62539219 30.96229685 14.81190256 30.95346639 13 31 C12.67 31.33 12.34 31.66 12 32 C4.81327237 31.64655438 4.81327237 31.64655438 1.90869141 29.33740234 C-0.50158578 26.3857531 -0.5473892 24.73410891 -0.64453125 20.95703125 C-0.68126953 19.80138672 -0.71800781 18.64574219 -0.75585938 17.45507812 C-0.77455078 16.25302734 -0.79324219 15.05097656 -0.8125 13.8125 C-0.85052734 12.59884766 -0.88855469 11.38519531 -0.92773438 10.13476562 C-1.09587394 3.74188476 -1.09587394 3.74188476 -1 1 C-0.67 0.67 -0.34 0.34 0 0 Z " fill="#F5F645" transform="translate(100,111)"/>
<path d="M0 0 C2.31 0 4.62 0 7 0 C7 12.21 7 24.42 7 37 C4.69 37 2.38 37 0 37 C0 24.79 0 12.58 0 0 Z " fill="#1F1F02" transform="translate(109,43)"/>
<path d="M0 0 C2.97 0 5.94 0 9 0 C11.3968665 2.3968665 11.28281133 3.07028314 11.4140625 6.3515625 C11.45273438 7.20234375 11.49140625 8.053125 11.53125 8.9296875 C11.5621875 9.81914063 11.593125 10.70859375 11.625 11.625 C11.66367188 12.5221875 11.70234375 13.419375 11.7421875 14.34375 C11.83658776 16.56215605 11.91938805 18.78105013 12 21 C15.3 21 18.6 21 22 21 C22.33 19.68 22.66 18.36 23 17 C24.98 17 26.96 17 29 17 C29.625 18.875 29.625 18.875 30 21 C27.50655461 23.49344539 26.56188885 23.24241972 23.125 23.375 C18.93903668 23.67509371 18.93903668 23.67509371 15.5 26.0625 C15.005 26.701875 14.51 27.34125 14 28 C13.34 28 12.68 28 12 28 C12.020625 29.093125 12.04125 30.18625 12.0625 31.3125 C12 35 12 35 11 38 C10.34 38 9.68 38 9 38 C9 26.12 9 14.24 9 2 C6.69 2 4.38 2 2 2 C2 13.88 2 25.76 2 38 C1.34 38 0.68 38 0 38 C0 25.46 0 12.92 0 0 Z " fill="#E5E638" transform="translate(107,41)"/>
<path d="M0 0 C1.87425348 -0.08188486 3.74957054 -0.13958757 5.625 -0.1875 C6.66914062 -0.22230469 7.71328125 -0.25710937 8.7890625 -0.29296875 C12 0 12 0 18 3 C18.33 10.59 18.66 18.18 19 26 C16.69 26 14.38 26 12 26 C12 25.01 12 24.02 12 23 C11.34 22.67 10.68 22.34 10 22 C10.33 21.67 10.66 21.34 11 21 C11.23075082 19.65252916 11.41153063 18.29622435 11.5625 16.9375 C11.706875 15.638125 11.85125 14.33875 12 13 C10.68 12.67 9.36 12.34 8 12 C8.99 11.34 9.98 10.68 11 10 C11.72382467 7.94074861 11.72382467 7.94074861 12 6 C9.36 6 6.72 6 4 6 C3.67 6.66 3.34 7.32 3 8 C1.02 8 -0.96 8 -3 8 C-2.37063561 5.06296616 -1.37579827 2.66211372 0 0 Z " fill="#0D0D00" transform="translate(84,53)"/>
<path d="M0 0 C0 2.64 0 5.28 0 8 C-1.7015625 8.4640625 -1.7015625 8.4640625 -3.4375 8.9375 C-6.78775099 9.62924531 -6.78775099 9.62924531 -8 11 C-8.23678716 13.69235776 -8.42198025 16.36498156 -8.5625 19.0625 C-8.60568359 19.82111328 -8.64886719 20.57972656 -8.69335938 21.36132812 C-8.79973633 23.24065438 -8.90039934 25.12030244 -9 27 C-10.98 27 -12.96 27 -15 27 C-15 18.42 -15 9.84 -15 1 C-13.02 1 -11.04 1 -9 1 C-9 1.99 -9 2.98 -9 4 C-8.34 4 -7.68 4 -7 4 C-6.67 3.01 -6.34 2.02 -6 1 C-4 0 -4 0 0 0 Z " fill="#040300" transform="translate(146,112)"/>
<path d="M0 0 C1.27875 -0.061875 2.5575 -0.12375 3.875 -0.1875 C4.95394531 -0.23970703 4.95394531 -0.23970703 6.0546875 -0.29296875 C6.69664062 -0.19628906 7.33859375 -0.09960938 8 0 C10.14553377 3.21830065 10.29583868 4.26786507 10.3125 8 C10.32925781 8.86625 10.34601563 9.7325 10.36328125 10.625 C10 13 10 13 8.703125 14.7890625 C5.87162519 16.80228484 3.34044889 16.36441261 0 16 C-2.28062828 12.57905758 -2.21925007 11.31812778 -2.125 7.3125 C-2.10695312 6.31863281 -2.08890625 5.32476562 -2.0703125 4.30078125 C-2.04710937 3.54152344 -2.02390625 2.78226562 -2 2 C-1.34 2 -0.68 2 0 2 C0 1.34 0 0.68 0 0 Z " fill="#E8EA42" transform="translate(159,118)"/>
<path d="M0 0 C1.98 0 3.96 0 6 0 C6.0271045 3.04172719 6.04688964 6.08320997 6.0625 9.125 C6.07087891 9.9809375 6.07925781 10.836875 6.08789062 11.71875 C6.10538306 16.26678411 5.93192358 20.52383164 5 25 C3.68 25 2.36 25 1 25 C1 24.34 1 23.68 1 23 C-0.32 22.67 -1.64 22.34 -3 22 C-2.68289062 21.35675781 -2.36578125 20.71351563 -2.0390625 20.05078125 C-0.68561702 16.07694321 -0.54279839 12.35798921 -0.375 8.1875 C-0.33632812 7.39923828 -0.29765625 6.61097656 -0.2578125 5.79882812 C-0.16411156 3.8662462 -0.08099221 1.93315624 0 0 Z " fill="#020201" transform="translate(118,113)"/>
<path d="M0 0 C1.65 0.99 3.3 1.98 5 3 C5.99 2.34 6.98 1.68 8 1 C8.02683987 3.97922593 8.04676037 6.95821295 8.0625 9.9375 C8.07087891 10.78763672 8.07925781 11.63777344 8.08789062 12.51367188 C8.09111328 13.32255859 8.09433594 14.13144531 8.09765625 14.96484375 C8.10289307 15.7137085 8.10812988 16.46257324 8.11352539 17.23413086 C8 19 8 19 7 20 C4 20.125 4 20.125 1 20 C0 19 0 19 -0.11352539 17.14233398 C-0.10828857 16.35157471 -0.10305176 15.56081543 -0.09765625 14.74609375 C-0.09443359 13.89208984 -0.09121094 13.03808594 -0.08789062 12.15820312 C-0.07951172 11.26037109 -0.07113281 10.36253906 -0.0625 9.4375 C-0.05798828 8.53580078 -0.05347656 7.63410156 -0.04882812 6.70507812 C-0.03700225 4.46998686 -0.0205222 2.23502563 0 0 Z " fill="#F9FA2F" transform="translate(109,113)"/>
<path d="M0 0 C3 1 3 1 4.4375 2.9375 C5.84615605 5.12837292 5.84615605 5.12837292 8.125 6 C10 7 10 7 10.74609375 8.8359375 C11.06584167 11.56117364 10.52338284 12.42319325 8.9375 14.625 C8.53402344 15.21539062 8.13054687 15.80578125 7.71484375 16.4140625 C6 18 6 18 0 20 C0 13.4 0 6.8 0 0 Z " fill="#FBFB27" transform="translate(146,56)"/>
<path d="M0 0 C0.33 0 0.66 0 1 0 C1 8.58 1 17.16 1 26 C2.98 26 4.96 26 7 26 C6.96519531 24.73542969 6.93039063 23.47085938 6.89453125 22.16796875 C6.86639323 20.50782577 6.83909309 18.84766844 6.8125 17.1875 C6.78736328 16.35412109 6.76222656 15.52074219 6.73632812 14.66210938 C6.72182617 13.45844727 6.72182617 13.45844727 6.70703125 12.23046875 C6.6913208 11.49207764 6.67561035 10.75368652 6.65942383 9.99291992 C7.09963679 7.41696405 7.92960994 6.55317019 10 5 C13.0625 4.6875 13.0625 4.6875 16 5 C18 7 18 7 18.22705078 8.97119141 C18.21657715 9.75671387 18.20610352 10.54223633 18.1953125 11.3515625 C18.18886719 12.20234375 18.18242187 13.053125 18.17578125 13.9296875 C18.15902344 14.81914063 18.14226562 15.70859375 18.125 16.625 C18.11597656 17.5221875 18.10695312 18.419375 18.09765625 19.34375 C18.0740497 21.56276586 18.0411231 23.78125077 18 26 C17.67 26 17.34 26 17 26 C17 20.06 17 14.12 17 8 C15.02 8 13.04 8 11 8 C10.67 13.94 10.34 19.88 10 26 C8 27 8 27 0 27 C0 18.09 0 9.18 0 0 Z " fill="#B8B92D" transform="translate(180,113)"/>
<path d="M0 0 C2.33294775 -0.04241723 4.66702567 -0.04092937 7 0 C8 1 8 1 8.11352539 4.41821289 C8.11336628 5.93636988 8.10767226 7.45453229 8.09765625 8.97265625 C8.0962413 9.77029892 8.09482635 10.56794159 8.09336853 11.38975525 C8.08775316 13.94737435 8.07519812 16.50490718 8.0625 19.0625 C8.05748698 20.79231645 8.05292373 22.52213426 8.04882812 24.25195312 C8.03777875 28.50133553 8.02050386 32.75065312 8 37 C5.36 37 2.72 37 0 37 C-0.66 35.68 -1.32 34.36 -2 33 C-1.34 33 -0.68 33 0 33 C0 33.66 0 34.32 0 35 C1.98 35 3.96 35 6 35 C6 23.78 6 12.56 6 1 C4.35 1 2.7 1 1 1 C1 8.92 1 16.84 1 25 C0.01 24.67 -0.98 24.34 -2 24 C-1.67 23.34 -1.34 22.68 -1 22 C-0.84777027 20.33434251 -0.75082785 18.66343504 -0.68359375 16.9921875 C-0.64169922 16.00605469 -0.59980469 15.01992187 -0.55664062 14.00390625 C-0.51732422 12.97136719 -0.47800781 11.93882813 -0.4375 10.875 C-0.39431641 9.83472656 -0.35113281 8.79445313 -0.30664062 7.72265625 C-0.2003712 5.14857472 -0.09833417 2.57439492 0 0 Z " fill="#5D5D12" transform="translate(59,103)"/>
<path d="M0 0 C0.625 1.8125 0.625 1.8125 1 4 C0.01 5.485 0.01 5.485 -1 7 C-0.34 7 0.32 7 1 7 C0.25 13.75 0.25 13.75 -2 16 C-5.125 16.125 -5.125 16.125 -8 16 C-8.84454356 12.62182575 -9.10844919 10.32534757 -8 7 C-8.99 6.67 -9.98 6.34 -11 6 C-11 6.99 -11 7.98 -11 9 C-12.32 9.33 -13.64 9.66 -15 10 C-15 12.31 -15 14.62 -15 17 C-15.33 17 -15.66 17 -16 17 C-16.47696477 9.84552846 -16.47696477 9.84552846 -14.625 6.5625 C-11.16858843 4.50511216 -8.2163414 4.51592097 -4.2421875 4.46875 C-3.13230469 4.23671875 -3.13230469 4.23671875 -2 4 C-0.6412418 2.05535143 -0.6412418 2.05535143 0 0 Z " fill="#323109" transform="translate(137,59)"/>
<path d="M0 0 C-0.33 2.64 -0.66 5.28 -1 8 C0.32 8.66 1.64 9.32 3 10 C3 11.32 3 12.64 3 14 C-4.2 14.48 -4.2 14.48 -7.5 12.5 C-9.79122453 8.68129245 -9.63183067 6.42281469 -9 2 C-5.9520574 -0.79394738 -3.87966931 -1.58060601 0 0 Z " fill="#1A1901" transform="translate(88,66)"/>
<path d="M0 0 C1.13211914 -0.01160156 1.13211914 -0.01160156 2.28710938 -0.0234375 C6.14063167 -0.0098568 9.17592785 0.06985098 12.4375 2.25 C8.6875 3.375 8.6875 3.375 6.4375 2.25 C0.21869791 1.72160505 -5.29621321 1.52506544 -10.5625 5.25 C-14.95380821 10.11604424 -15.74389504 13.15840157 -15.75 19.5625 C-15.76417969 20.87863281 -15.77835938 22.19476563 -15.79296875 23.55078125 C-15.57986646 26.97125367 -15.05374982 29.20266341 -13.5625 32.25 C-17.4375 30.375 -17.4375 30.375 -18.5625 29.25 C-18.64919432 27.7612814 -18.66953494 26.268555 -18.66015625 24.77734375 C-18.65693359 23.87822266 -18.65371094 22.97910156 -18.65039062 22.05273438 C-18.64201172 21.10720703 -18.63363281 20.16167969 -18.625 19.1875 C-18.62048828 18.23810547 -18.61597656 17.28871094 -18.61132812 16.31054688 C-18.5995011 13.95696935 -18.58302025 11.60351523 -18.5625 9.25 C-17.9025 9.25 -17.2425 9.25 -16.5625 9.25 C-16.5625 8.26 -16.5625 7.27 -16.5625 6.25 C-15.9025 6.25 -15.2425 6.25 -14.5625 6.25 C-14.500625 5.63125 -14.43875 5.0125 -14.375 4.375 C-13.5625 2.25 -13.5625 2.25 -11.546875 1.1328125 C-7.63397338 -0.02466887 -4.05704969 -0.04178935 0 0 Z " fill="#DADB36" transform="translate(57.5625,41.75)"/>
<path d="M0 0 C0.99 0.33 1.98 0.66 3 1 C4.19190363 9.34332544 4.09283549 17.59323022 4 26 C-0.49167828 27.19600901 -4.73269793 26.9185704 -9.3125 26.5625 C-10.05306641 26.51029297 -10.79363281 26.45808594 -11.55664062 26.40429688 C-13.37152709 26.27549848 -15.18583325 26.13856738 -17 26 C-17 25.67 -17 25.34 -17 25 C-16.07767578 24.80083984 -16.07767578 24.80083984 -15.13671875 24.59765625 C-14.32847656 24.42105469 -13.52023438 24.24445313 -12.6875 24.0625 C-11.88699219 23.88847656 -11.08648437 23.71445313 -10.26171875 23.53515625 C-7.854599 23.00113841 -7.854599 23.00113841 -5 22 C-5 22.66 -5 23.32 -5 24 C-2.69 24 -0.38 24 2 24 C1.67 23.34 1.34 22.68 1 22 C0.84777027 20.33434251 0.75082785 18.66343504 0.68359375 16.9921875 C0.64169922 16.00605469 0.59980469 15.01992187 0.55664062 14.00390625 C0.51732422 12.97136719 0.47800781 11.93882813 0.4375 10.875 C0.39431641 9.83472656 0.35113281 8.79445313 0.30664062 7.72265625 C0.2003712 5.14857472 0.09833417 2.57439492 0 0 Z " fill="#D1D336" transform="translate(101,55)"/>
<path d="M0 0 C0.33 0 0.66 0 1 0 C1 2.97 1 5.94 1 9 C-1.31 9 -3.62 9 -6 9 C-6 9.66 -6 10.32 -6 11 C-3.69 11 -1.38 11 1 11 C1 13.31 1 15.62 1 18 C-0.32 17.67 -1.64 17.34 -3 17 C-2.01 15.35 -1.02 13.7 0 12 C-5.01535052 12.32960216 -5.01535052 12.32960216 -9 15 C-11.88306818 15.36962413 -13.39094287 15.4200394 -15.8125 13.75 C-17 12 -17 12 -17 8 C-11.39 8 -5.78 8 0 8 C0 5.36 0 2.72 0 0 Z " fill="#CCCE36" transform="translate(95,120)"/>
<path d="M0 0 C0.66 0 1.32 0 2 0 C2.94952227 1.66166398 3.89734353 3.32432627 4.8359375 4.9921875 C5.59939004 6.30901503 6.39571509 7.60743526 7.2265625 8.8828125 C8.375 10.6875 8.375 10.6875 10 14 C9.25 16.4375 9.25 16.4375 8 18 C7.31640625 16.27473958 6.6328125 14.54947917 5.94921875 12.82421875 C4.90142764 10.81056259 3.67033481 9.52061292 2 8 C2.01160156 9.13179687 2.02320313 10.26359375 2.03515625 11.4296875 C2.04453454 12.91145669 2.0536347 14.39322765 2.0625 15.875 C2.07087891 16.62136719 2.07925781 17.36773437 2.08789062 18.13671875 C2.11328125 23.7734375 2.11328125 23.7734375 1 26 C-1.31 26 -3.62 26 -6 26 C-6.33 25.34 -6.66 24.68 -7 24 C-4.69 24 -2.38 24 0 24 C0 16.08 0 8.16 0 0 Z " fill="#DADC3E" transform="translate(44,116)"/>
<path d="M0 0 C1.90845703 0.04060547 1.90845703 0.04060547 3.85546875 0.08203125 C5.31919922 0.13423828 5.31919922 0.13423828 6.8125 0.1875 C6.8125 0.5175 6.8125 0.8475 6.8125 1.1875 C0.8725 1.6825 0.8725 1.6825 -5.1875 2.1875 C-6.1775 4.4975 -7.1675 6.8075 -8.1875 9.1875 C-6.2075 9.1875 -4.2275 9.1875 -2.1875 9.1875 C-1.8575 8.1975 -1.5275 7.2075 -1.1875 6.1875 C0.7925 6.1875 2.7725 6.1875 4.8125 6.1875 C5.375 8.125 5.375 8.125 5.8125 10.1875 C4.09900715 11.90099285 1.70685845 11.79936231 -0.625 12.1875 C-4.53432538 12.79305519 -4.53432538 12.79305519 -8.1875 14.1875 C-8.1875 13.1975 -8.1875 12.2075 -8.1875 11.1875 C-8.8475 10.8575 -9.5075 10.5275 -10.1875 10.1875 C-10.55048932 3.77468861 -10.55048932 3.77468861 -9.125 1.46875 C-6.14201212 -0.50387102 -3.52130768 -0.09691673 0 0 Z " fill="#E4E548" transform="translate(89.1875,51.8125)"/>
<path d="M0 0 C0 2.64 0 5.28 0 8 C-2.64 8.66 -5.28 9.32 -8 10 C-9.25664978 7.09399739 -10 5.20395416 -10 2 C-11.32 2 -12.64 2 -14 2 C-14 10.25 -14 18.5 -14 27 C-14.33 27 -14.66 27 -15 27 C-15 18.42 -15 9.84 -15 1 C-13.02 1 -11.04 1 -9 1 C-9 1.99 -9 2.98 -9 4 C-8.34 4 -7.68 4 -7 4 C-6.67 3.01 -6.34 2.02 -6 1 C-4 0 -4 0 0 0 Z " fill="#2B2A03" transform="translate(146,112)"/>
<path d="M0 0 C0.66 0 1.32 0 2 0 C2.02888146 3.31248187 2.04675799 6.62493167 2.0625 9.9375 C2.07087891 10.88302734 2.07925781 11.82855469 2.08789062 12.80273438 C2.09272461 14.15141602 2.09272461 14.15141602 2.09765625 15.52734375 C2.10551147 16.77632446 2.10551147 16.77632446 2.11352539 18.05053711 C2 20 2 20 1 21 C-6.63518894 21.93280589 -14.3158147 22.15611212 -22 22 C-22 21.34 -22 20.68 -22 20 C-21.00419922 19.94392578 -21.00419922 19.94392578 -19.98828125 19.88671875 C-14.85776831 19.50473895 -11.28275411 19.07822952 -7 16 C-6.34 16 -5.68 16 -5 16 C-5 17.32 -5 18.64 -5 20 C-3.35 20 -1.7 20 0 20 C0 13.4 0 6.8 0 0 Z " fill="#DFE038" transform="translate(74,60)"/>
<path d="M0 0 C0.33 0 0.66 0 1 0 C1.33 5.61 1.66 11.22 2 17 C2.66 15.35 3.32 13.7 4 12 C4.66 12 5.32 12 6 12 C5.83757812 12.53625 5.67515625 13.0725 5.5078125 13.625 C4.9002172 16.46667646 4.86773722 19.09488707 4.875 22 C4.87242188 23.03125 4.86984375 24.0625 4.8671875 25.125 C4.98136329 27.59657009 5.28649344 29.6442958 6 32 C3.525 31.01 3.525 31.01 1 30 C1 31.98 1 33.96 1 36 C0.67 36 0.34 36 0 36 C0 24.12 0 12.24 0 0 Z " fill="#F3F54B" transform="translate(67,104)"/>
<path d="M0 0 C5.94 0 11.88 0 18 0 C18 0.33 18 0.66 18 1 C15.36 1 12.72 1 10 1 C10.66 1.99 11.32 2.98 12 4 C11.625 6.1875 11.625 6.1875 11 8 C10.34 7.01 9.68 6.02 9 5 C8.18357746 6.26831693 7.37200895 7.53975931 6.5625 8.8125 C6.11003906 9.52019531 5.65757812 10.22789063 5.19140625 10.95703125 C3.81975325 13.30907885 3 15.25188661 3 18 C3.99 18.33 4.98 18.66 6 19 C5.34 19.66 4.68 20.32 4 21 C0 16.87878788 0 16.87878788 0 13.0625 C1.15842808 9.51481399 2.69786395 6.92999134 5 4 C5.66 4 6.32 4 7 4 C7 3.01 7 2.02 7 1 C4.69 1 2.38 1 0 1 C0 0.67 0 0.34 0 0 Z " fill="#DFE134" transform="translate(166,52)"/>
<path d="M0 0 C2.5 0.125 2.5 0.125 3.5 1.125 C3.57226502 2.97787502 3.5838122 4.83333878 3.5625 6.6875 C3.55347656 7.69941406 3.54445312 8.71132812 3.53515625 9.75390625 C3.52355469 10.53636719 3.51195312 11.31882813 3.5 12.125 C1.50045254 12.16754356 -0.50041636 12.16580783 -2.5 12.125 C-3.5 11.125 -3.5 11.125 -3.6328125 8.875 C-3.63023437 7.9675 -3.62765625 7.06 -3.625 6.125 C-3.62757813 5.2175 -3.63015625 4.31 -3.6328125 3.375 C-3.44447559 0.18435126 -3.20783655 0.16039183 0 0 Z " fill="#FCFD23" transform="translate(162.5,119.875)"/>
<path d="M0 0 C1.32 0.33 2.64 0.66 4 1 C3.70703125 3.01822917 3.4140625 5.03645833 3.12109375 7.0546875 C2.8315703 9.08140667 2.8315703 9.08140667 4 11 C3.01 12.485 3.01 12.485 2 14 C-2.875 13.125 -2.875 13.125 -4 12 C-4.14115161 9.32941149 -4.04247107 6.67567762 -4 4 C-2.68 3.67 -1.36 3.34 0 3 C0 2.01 0 1.02 0 0 Z " fill="#0D0C00" transform="translate(126,65)"/>
<path d="M0 0 C0.33 0 0.66 0 1 0 C1 6.6 1 13.2 1 20 C-0.32 20.33 -1.64 20.66 -3 21 C-3 19.68 -3 18.36 -3 17 C-5.31 17 -7.62 17 -10 17 C-10 16.34 -10 15.68 -10 15 C-7.69 15 -5.38 15 -3 15 C-3.33 11.7 -3.66 8.4 -4 5 C-3.34 5 -2.68 5 -2 5 C-1.67 5.99 -1.34 6.98 -1 8 C-0.67 5.36 -0.34 2.72 0 0 Z " fill="#F8F944" transform="translate(99,114)"/>
<path d="M0 0 C0.99 0.33 1.98 0.66 3 1 C4.1875 4.0625 4.1875 4.0625 5 7 C7.64 7 10.28 7 13 7 C13 6.01 13 5.02 13 4 C13.99 4.33 14.98 4.66 16 5 C16 5.99 16 6.98 16 8 C13.47524538 9.26237731 11.68799534 9.09856404 8.875 9.0625 C7.96492188 9.05347656 7.05484375 9.04445313 6.1171875 9.03515625 C5.41851562 9.02355469 4.71984375 9.01195313 4 9 C3.67 7.68 3.34 6.36 3 5 C1.01508358 5.26676204 1.01508358 5.26676204 -1 6 C-1.33 6.99 -1.66 7.98 -2 9 C-5.3 8.67 -8.6 8.34 -12 8 C-11.67 7.34 -11.34 6.68 -11 6 C-8.36 6.33 -5.72 6.66 -3 7 C-2.690625 6.21625 -2.38125 5.4325 -2.0625 4.625 C-1 2 -1 2 0 0 Z " fill="#C0C134" transform="translate(160,72)"/>
<path d="M0 0 C2.97 0 5.94 0 9 0 C8.67 9.57 8.34 19.14 8 29 C5.69 29 3.38 29 1 29 C1 28.67 1 28.34 1 28 C2.98 28 4.96 28 7 28 C7 19.42 7 10.84 7 2 C5.02 2 3.04 2 1 2 C1 7.61 1 13.22 1 19 C0.67 19 0.34 19 0 19 C-0.16789126 16.56257869 -0.33436133 14.12507454 -0.5 11.6875 C-0.54769531 10.99720703 -0.59539062 10.30691406 -0.64453125 9.59570312 C-0.83879489 6.72337641 -1 3.87986212 -1 1 C-0.67 0.67 -0.34 0.34 0 0 Z " fill="#A3A31E" transform="translate(117,111)"/>
<path d="M0 0 C0.33 0 0.66 0 1 0 C1 7.59 1 15.18 1 23 C-2.09738942 19.90261058 -3.76255845 18.04317916 -5.75 14.375 C-6.17796875 13.59898438 -6.6059375 12.82296875 -7.046875 12.0234375 C-8 10 -8 10 -8 8 C-7.01 8 -6.02 8 -5 8 C-4.67 9.98 -4.34 11.96 -4 14 C-3.34 14 -2.68 14 -2 14 C-1.93941406 13.07316406 -1.87882812 12.14632812 -1.81640625 11.19140625 C-1.73261719 9.99386719 -1.64882813 8.79632813 -1.5625 7.5625 C-1.48128906 6.36753906 -1.40007813 5.17257813 -1.31640625 3.94140625 C-1 1 -1 1 0 0 Z " fill="#FBFB34" transform="translate(58,103)"/>
<path d="M0 0 C0.33 0 0.66 0 1 0 C1 1.98 1 3.96 1 6 C3.64 6 6.28 6 9 6 C8.62951193 8.5934165 7.94398898 10.08065587 6.4375 12.25 C2.78098039 14.87519356 0.44253004 14.50157597 -4 14 C-4.66 13.01 -5.32 12.02 -6 11 C-2.7 11 0.6 11 4 11 C4 10.34 4 9.68 4 9 C2.68 8.67 1.36 8.34 0 8 C0 5.36 0 2.72 0 0 Z " fill="#DEDE41" transform="translate(58,60)"/>
<path d="M0 0 C0.99 0.33 1.98 0.66 3 1 C3 8.92 3 16.84 3 25 C2.01 25 1.02 25 0 25 C0 16.75 0 8.5 0 0 Z " fill="#FBFD2D" transform="translate(126,113)"/>
<path d="M0 0 C2.97 0 5.94 0 9 0 C9.33 6.93 9.66 13.86 10 21 C11.65 21.33 13.3 21.66 15 22 C15 22.33 15 22.66 15 23 C13.00045254 23.04254356 10.99958364 23.04080783 9 23 C8 22 8 22 7.88647461 20.05053711 C7.89171143 19.2178833 7.89694824 18.38522949 7.90234375 17.52734375 C7.90556641 16.62822266 7.90878906 15.72910156 7.91210938 14.80273438 C7.92048828 13.85720703 7.92886719 12.91167969 7.9375 11.9375 C7.94426758 10.5134082 7.94426758 10.5134082 7.95117188 9.06054688 C7.9629989 6.70696935 7.97947975 4.35351523 8 2 C5.69 2 3.38 2 1 2 C1 8.93 1 15.86 1 23 C0.67 23 0.34 23 0 23 C-0.19588601 19.3545658 -0.38030536 15.7086421 -0.5625 12.0625 C-0.61857422 11.02158203 -0.67464844 9.98066406 -0.73242188 8.90820312 C-0.78076172 7.91884766 -0.82910156 6.92949219 -0.87890625 5.91015625 C-0.9260376 4.99371338 -0.97316895 4.07727051 -1.02172852 3.13305664 C-1 1 -1 1 0 0 Z " fill="#C4C435" transform="translate(100,111)"/>
<path d="M0 0 C0 3 0 3 -1.375 4.6875 C-3 6 -3 6 -5 6 C-5 6.66 -5 7.32 -5 8 C-9.62 8 -14.24 8 -19 8 C-19.66 5.69 -20.32 3.38 -21 1 C-19.515 1.99 -19.515 1.99 -18 3 C-13.82112831 4.19396334 -9.30991961 4.66908026 -5 4 C-2.03268602 2.16343011 -2.03268602 2.16343011 0 0 Z " fill="#D5D632" transform="translate(173,135)"/>
<path d="M0 0 C0.103125 0.639375 0.20625 1.27875 0.3125 1.9375 C0.539375 2.618125 0.76625 3.29875 1 4 C1.99 4.33 2.98 4.66 4 5 C3.67 5.66 3.34 6.32 3 7 C1.41949756 11.74150731 1.40287909 16.20863728 3 21 C5.10584438 21.80563638 5.10584438 21.80563638 7.5625 22.1875 C8.80193359 22.42533203 8.80193359 22.42533203 10.06640625 22.66796875 C11.02353516 22.83232422 11.02353516 22.83232422 12 23 C11.67 23.66 11.34 24.32 11 25 C8.69 24.67 6.38 24.34 4 24 C4 23.34 4 22.68 4 22 C3.34 22 2.68 22 2 22 C2 21.34 2 20.68 2 20 C1.34 20 0.68 20 0 20 C-0.66 17.03 -1.32 14.06 -2 11 C-1.34 11 -0.68 11 0 11 C-0.185625 10.29875 -0.37125 9.5975 -0.5625 8.875 C-1.05156976 5.66111302 -0.66231558 3.16439664 0 0 Z " fill="#F2F237" transform="translate(78,58)"/>
<path d="M0 0 C1.32 0.33 2.64 0.66 4 1 C4 1.66 4 2.32 4 3 C4.99 3 5.98 3 7 3 C8.01622308 8.18273772 8.04723881 9.88190297 6 15 C1.05 15 -3.9 15 -9 15 C-9 14.67 -9 14.34 -9 14 C-5.7 13.67 -2.4 13.34 1 13 C0.01 11.68 -0.98 10.36 -2 9 C0.31 9 2.62 9 5 9 C4.4552207 5.1865449 2.7581556 3.58021008 0 1 C0 0.67 0 0.34 0 0 Z " fill="#CFCF2D" transform="translate(68,45)"/>
<path d="M0 0 C0.66 0 1.32 0 2 0 C2.103125 1.093125 2.20625 2.18625 2.3125 3.3125 C3.06231895 7.43985051 3.06231895 7.43985051 6 10 C8.14313515 10.43633091 8.14313515 10.43633091 10.4375 10.3125 C11.19933594 10.30863281 11.96117187 10.30476563 12.74609375 10.30078125 C15.19529127 9.9739386 16.86700917 9.21954601 19 8 C19 8.66 19 9.32 19 10 C21.64 9.67 24.28 9.34 27 9 C27 9.66 27 10.32 27 11 C19.74 11.66 12.48 12.32 5 13 C4.34 11.68 3.68 10.36 3 9 C1.68 9 0.36 9 -1 9 C-0.67 6.03 -0.34 3.06 0 0 Z " fill="#E6E937" transform="translate(119,69)"/>
<path d="M0 0 C2.64 0.33 5.28 0.66 8 1 C8 1.33 8 1.66 8 2 C5.36 2 2.72 2 0 2 C0.020625 2.969375 0.04125 3.93875 0.0625 4.9375 C0 8 0 8 -1 9 C-1.24468057 12.33037447 -1.38427005 15.65973714 -1.5234375 18.99609375 C-1.68070313 19.98738281 -1.83796875 20.97867188 -2 22 C-2.99 22.66 -3.98 23.32 -5 24 C-4.67 23.01 -4.34 22.02 -4 21 C-3.16931203 12.75579341 -3.16931203 12.75579341 -6 5.25 C-6.66 4.5075 -7.32 3.765 -8 3 C-6.576875 3.0928125 -6.576875 3.0928125 -5.125 3.1875 C-3.578125 3.0946875 -3.578125 3.0946875 -2 3 C-1.34 2.01 -0.68 1.02 0 0 Z " fill="#DDDE31" transform="translate(179,111)"/>
<path d="M0 0 C1.670625 0.061875 1.670625 0.061875 3.375 0.125 C3.5625 2.5 3.5625 2.5 3.375 5.125 C0.14708445 7.2769437 -0.90900809 7.32586443 -4.625 7.125 C-5.25 4.75 -5.25 4.75 -5.625 2.125 C-3.625 0.125 -3.625 0.125 0 0 Z " fill="#DEDF42" transform="translate(91.625,67.875)"/>
<path d="M0 0 C0.125 2.375 0.125 2.375 0 5 C-2 7 -2 7 -5.125 7.125 C-6.548125 7.063125 -6.548125 7.063125 -8 7 C-8.33 5.35 -8.66 3.7 -9 2 C-5.5647952 -0.29013653 -4.014669 -0.17842973 0 0 Z " fill="#CED045" transform="translate(137,68)"/>
<path d="M0 0 C0.9590625 1.2375 0.9590625 1.2375 1.9375 2.5 C5.59289322 5.48399446 7.28327736 5.50465214 11.81640625 5.37109375 C14.18793496 4.96806114 15.91450318 4.17752541 18 3 C17 6 17 6 14.9375 7.75 C11.00692563 9.42258484 8.05551625 9.25306139 4 8 C1.5 6.1875 1.5 6.1875 0 4 C0 2.68 0 1.36 0 0 Z " fill="#E1E33A" transform="translate(100,134)"/>
<path d="M0 0 C0.598125 0.495 1.19625 0.99 1.8125 1.5 C6.49931975 3.70556223 10.90626803 3.21289592 16 3 C16.99 3 17.98 3 19 3 C16.08427978 6.19340786 14.00452106 6.92559103 9.625 7.25 C5.75422278 6.98304985 3.97452461 6.4496085 1 4 C0.1875 1.8125 0.1875 1.8125 0 0 Z " fill="#E0E139" transform="translate(73,136)"/>
<path d="M0 0 C1.90845703 0.04060547 1.90845703 0.04060547 3.85546875 0.08203125 C5.31919922 0.13423828 5.31919922 0.13423828 6.8125 0.1875 C6.8125 0.5175 6.8125 0.8475 6.8125 1.1875 C0.8725 1.6825 0.8725 1.6825 -5.1875 2.1875 C-6.1775 4.4975 -7.1675 6.8075 -8.1875 9.1875 C-6.2075 9.1875 -4.2275 9.1875 -2.1875 9.1875 C-2.1875 9.5175 -2.1875 9.8475 -2.1875 10.1875 C-4.8275 10.1875 -7.4675 10.1875 -10.1875 10.1875 C-10.55048932 3.77468861 -10.55048932 3.77468861 -9.125 1.46875 C-6.14201212 -0.50387102 -3.52130768 -0.09691673 0 0 Z " fill="#AEAF27" transform="translate(89.1875,51.8125)"/>
<path d="M0 0 C2.45862401 -0.05383848 4.9160755 -0.09359038 7.375 -0.125 C8.42300781 -0.15013672 8.42300781 -0.15013672 9.4921875 -0.17578125 C11.32897486 -0.19344267 13.16601963 -0.10303261 15 0 C17 2 17 2 17.22705078 4.33837891 C17.21657715 5.29147949 17.20610352 6.24458008 17.1953125 7.2265625 C17.18886719 8.2578125 17.18242187 9.2890625 17.17578125 10.3515625 C17.15902344 11.43179688 17.14226562 12.51203125 17.125 13.625 C17.11597656 14.71296875 17.10695312 15.8009375 17.09765625 16.921875 C17.07403409 19.61480152 17.04109556 22.30729255 17 25 C16.67 25 16.34 25 16 25 C15.98541748 24.37432129 15.97083496 23.74864258 15.95581055 23.10400391 C15.88147196 20.27703598 15.78476766 17.45126792 15.6875 14.625 C15.66494141 13.64015625 15.64238281 12.6553125 15.61914062 11.640625 C15.58369141 10.69960938 15.54824219 9.75859375 15.51171875 8.7890625 C15.48553467 7.91975098 15.45935059 7.05043945 15.43237305 6.15478516 C15.18654782 3.61399973 15.18654782 3.61399973 12 2 C9.03157342 1.54084493 9.03157342 1.54084493 5.8125 1.375 C4.72582031 1.30023438 3.63914063 1.22546875 2.51953125 1.1484375 C1.68808594 1.09945312 0.85664063 1.05046875 0 1 C0 0.67 0 0.34 0 0 Z " fill="#AEAE2A" transform="translate(128,52)"/>
<path d="M0 0 C1.27875 -0.061875 2.5575 -0.12375 3.875 -0.1875 C4.95394531 -0.23970703 4.95394531 -0.23970703 6.0546875 -0.29296875 C6.69664062 -0.19628906 7.33859375 -0.09960938 8 0 C10.20914 3.31371 10.22481553 4.3446021 10.125 8.1875 C10.10695312 9.08855469 10.08890625 9.98960938 10.0703125 10.91796875 C10.03550781 11.94857422 10.03550781 11.94857422 10 13 C9.34 13 8.68 13 8 13 C7.34 9.7 6.68 6.4 6 3 C3.36 3.33 0.72 3.66 -2 4 C-2 3.34 -2 2.68 -2 2 C-1.34 2 -0.68 2 0 2 C0 1.34 0 0.68 0 0 Z " fill="#BDBF3A" transform="translate(159,118)"/>
<path d="M0 0 C3.0625 0.1875 3.0625 0.1875 5.0625 2.1875 C5.0625 3.1775 5.0625 4.1675 5.0625 5.1875 C1.7625 5.1875 -1.5375 5.1875 -4.9375 5.1875 C-3.69966216 0.23614865 -3.69966216 0.23614865 0 0 Z " fill="#F0F44E" transform="translate(82.9375,117.8125)"/>
<path d="M0 0 C0.33 0.66 0.66 1.32 1 2 C-0.21236328 2.03867187 -0.21236328 2.03867187 -1.44921875 2.078125 C-9.58678869 2.36283996 -9.58678869 2.36283996 -16 7 C-16.66 7.66 -17.32 8.32 -18 9 C-17.875 6.1875 -17.875 6.1875 -17 3 C-11.94226794 -0.99294636 -6.12048287 -0.29404455 0 0 Z " fill="#F5F83C" transform="translate(139,50)"/>
<path d="M0 0 C0.99 0 1.98 0 3 0 C2.67 5.94 2.34 11.88 2 18 C1.34 18 0.68 18 0 18 C0 12.06 0 6.12 0 0 Z " fill="#EBED3F" transform="translate(138,122)"/>
<path d="M0 0 C1.98 0 3.96 0 6 0 C6 3.63 6 7.26 6 11 C5.67 11 5.34 11 5 11 C5 7.7 5 4.4 5 1 C4.01 1.66 3.02 2.32 2 3 C1.668762 5.58248385 1.48796583 7.97432401 1.4375 10.5625 C1.37502231 13.06854947 1.23327102 15.49898032 1 18 C0.34 18.33 -0.32 18.66 -1 19 C-0.67 12.73 -0.34 6.46 0 0 Z " fill="#151500" transform="translate(118,113)"/>
<path d="M0 0 C5.94 0 11.88 0 18 0 C18 0.33 18 0.66 18 1 C15.36 1 12.72 1 10 1 C10.66 1.99 11.32 2.98 12 4 C11.625 6.1875 11.625 6.1875 11 8 C10.67 7.01 10.34 6.02 10 5 C8.35 5.33 6.7 5.66 5 6 C5 5.34 5 4.68 5 4 C5.66 4 6.32 4 7 4 C7 3.01 7 2.02 7 1 C4.69 1 2.38 1 0 1 C0 0.67 0 0.34 0 0 Z " fill="#C8C831" transform="translate(166,52)"/>
<path d="M0 0 C1.97883159 0.26712469 3.9367135 0.67971283 5.88671875 1.109375 C4.44921875 3.109375 4.44921875 3.109375 1.88671875 5.109375 C-1.14152543 5.46379945 -4.07814064 5.34284735 -7.11328125 5.109375 C-3.25704446 0.16857162 -3.25704446 0.16857162 0 0 Z " fill="#292703" transform="translate(132.11328125,74.890625)"/>
<path d="M0 0 C0.66 1.32 1.32 2.64 2 4 C4.64 4 7.28 4 10 4 C10 3.01 10 2.02 10 1 C10.99 1.33 11.98 1.66 13 2 C13 2.99 13 3.98 13 5 C10.47524538 6.26237731 8.68799534 6.09856404 5.875 6.0625 C4.96492187 6.05347656 4.05484375 6.04445313 3.1171875 6.03515625 C2.41851562 6.02355469 1.71984375 6.01195313 1 6 C0.67 4.02 0.34 2.04 0 0 Z " fill="#E4E43F" transform="translate(163,75)"/>
<path d="M0 0 C0.33 0 0.66 0 1 0 C1 2.97 1 5.94 1 9 C1.99 9.33 2.98 9.66 4 10 C4 11.98 4 13.96 4 16 C3.34 16 2.68 16 2 16 C1.67 16.66 1.34 17.32 1 18 C-0.59412284 14.81175432 -0.10174735 11.37103338 -0.0625 7.875 C-0.05798828 7.12089844 -0.05347656 6.36679687 -0.04882812 5.58984375 C-0.03703499 3.72652873 -0.01909942 1.86325445 0 0 Z " fill="#F7F927" transform="translate(118,46)"/>
<path d="M0 0 C0.66 0.66 1.32 1.32 2 2 C1.319375 2.99 1.319375 2.99 0.625 4 C-0.79760049 6.62633937 -1.39437206 8.39636329 -2 11.25 C-2.33 12.4875 -2.66 13.725 -3 15 C-3.99 15.33 -4.98 15.66 -6 16 C-5.57448104 14.08063787 -5.13408062 12.16457126 -4.6875 10.25 C-4.32205078 8.64898437 -4.32205078 8.64898437 -3.94921875 7.015625 C-3.0245175 4.07789099 -1.99907642 2.30705738 0 0 Z " fill="#D0D133" transform="translate(203,53)"/>
<path d="M0 0 C0.99386719 0.00902344 1.98773438 0.01804688 3.01171875 0.02734375 C4.15060547 0.04474609 4.15060547 0.04474609 5.3125 0.0625 C5.3125 0.3925 5.3125 0.7225 5.3125 1.0625 C4.00925781 1.17464844 4.00925781 1.17464844 2.6796875 1.2890625 C-4.99655603 2.16487552 -8.8193487 3.01020379 -13.6875 9.0625 C-14.3475 9.0625 -15.0075 9.0625 -15.6875 9.0625 C-14.19271886 5.25760255 -11.99307786 3.40059165 -8.6875 1.0625 C-5.53819107 0.01273036 -3.29935544 -0.03881595 0 0 Z " fill="#2E2C01" transform="translate(58.6875,42.9375)"/>
<path d="M0 0 C2.875 -0.125 2.875 -0.125 6 0 C8 2 8 2 8.22705078 3.97119141 C8.21134033 5.1494751 8.21134033 5.1494751 8.1953125 6.3515625 C8.18564453 7.62773438 8.18564453 7.62773438 8.17578125 8.9296875 C8.15902344 9.81914063 8.14226562 10.70859375 8.125 11.625 C8.11597656 12.5221875 8.10695312 13.419375 8.09765625 14.34375 C8.0740497 16.56276586 8.0411231 18.78125077 8 21 C7.67 21 7.34 21 7 21 C7 15.06 7 9.12 7 3 C4.69 2.67 2.38 2.34 0 2 C0 1.34 0 0.68 0 0 Z " fill="#AAAD31" transform="translate(190,118)"/>
<path d="M0 0 C0 2.97 0 5.94 0 9 C-0.33 9 -0.66 9 -1 9 C-1.33 6.69 -1.66 4.38 -2 2 C-11.405 2.495 -11.405 2.495 -21 3 C-21 2.34 -21 1.68 -21 1 C-17.87504511 0.83248032 -14.75002908 0.66612942 -11.625 0.5 C-10.73554688 0.45230469 -9.84609375 0.40460937 -8.9296875 0.35546875 C-7.65351563 0.28779297 -7.65351563 0.28779297 -6.3515625 0.21875 C-5.56604004 0.17685547 -4.78051758 0.13496094 -3.97119141 0.09179688 C-2.64854076 0.03020205 -1.32408408 0 0 0 Z " fill="#F0F139" transform="translate(186,50)"/>
<path d="M0 0 C2.5 1.5 2.5 1.5 4 3 C3.67 3.66 3.34 4.32 3 5 C2.01 4.34 1.02 3.68 0 3 C-4.5597248 2.66224261 -7.8782921 3.00159617 -12 5 C-10.06001965 -0.81994106 -5.40267304 -0.7500693 0 0 Z " fill="#CCCD3F" transform="translate(62,49)"/>
<path d="M0 0 C0.33 0 0.66 0 1 0 C1 7.59 1 15.18 1 23 C-0.32 21.68 -1.64 20.36 -3 19 C-3 18.34 -3 17.68 -3 17 C-2.34 17 -1.68 17 -1 17 C-0.67 11.39 -0.34 5.78 0 0 Z " fill="#E6E850" transform="translate(58,103)"/>
<path d="M0 0 C1.98 0 3.96 0 6 0 C6.625 1.875 6.625 1.875 7 4 C5 6 5 6 1.375 6.125 C0.26125 6.08375 -0.8525 6.0425 -2 6 C-2 5.67 -2 5.34 -2 5 C1.465 4.505 1.465 4.505 5 4 C5 3.34 5 2.68 5 2 C3.68 2 2.36 2 1 2 C1 2.66 1 3.32 1 4 C0.34 4 -0.32 4 -1 4 C-0.67 2.68 -0.34 1.36 0 0 Z " fill="#C2C63E" transform="translate(130,58)"/>
<path d="M0 0 C1.32 0 2.64 0 4 0 C4 0.66 4 1.32 4 2 C2.96939453 2.29003906 2.96939453 2.29003906 1.91796875 2.5859375 C1.01691406 2.84632812 0.11585938 3.10671875 -0.8125 3.375 C-1.70582031 3.63023438 -2.59914062 3.88546875 -3.51953125 4.1484375 C-6.20467896 4.95266661 -6.20467896 4.95266661 -9 7 C-9 5.35 -9 3.7 -9 2 C-6.03 2 -3.06 2 0 2 C0 1.34 0 0.68 0 0 Z " fill="#F2F548" transform="translate(131,60)"/>
<path d="M0 0 C5.78461538 4.43076923 5.78461538 4.43076923 6.875 7.3125 C6.936875 8.1478125 6.936875 8.1478125 7 9 C5.0625 8.1875 5.0625 8.1875 3 7 C2.67 6.01 2.34 5.02 2 4 C0.68 4.33 -0.64 4.66 -2 5 C-1.125 1.125 -1.125 1.125 0 0 Z " fill="#E3E435" transform="translate(147,53)"/>
<path d="M0 0 C0.66 0 1.32 0 2 0 C2 0.66 2 1.32 2 2 C4.64 1.67 7.28 1.34 10 1 C10 1.66 10 2.32 10 3 C3.28837062 3.88021369 -3.23405981 4.11381955 -10 4 C-10 3.67 -10 3.34 -10 3 C-8.72125 2.87625 -7.4425 2.7525 -6.125 2.625 C-2.65209064 2.30957601 -2.65209064 2.30957601 0 0 Z " fill="#BABB30" transform="translate(136,77)"/>
<path d="M0 0 C0.33 0 0.66 0 1 0 C1.66 4.62 2.32 9.24 3 14 C0.525 13.01 0.525 13.01 -2 12 C-2 10.02 -2 8.04 -2 6 C-1.67 6 -1.34 6 -1 6 C-0.67 4.02 -0.34 2.04 0 0 Z " fill="#D7D935" transform="translate(70,122)"/>
<path d="M0 0 C8.57142857 -0.28571429 8.57142857 -0.28571429 12 2 C10.625 3.5 10.625 3.5 9 5 C8.34 5 7.68 5 7 5 C7 4.01 7 3.02 7 2 C4.69 2 2.38 2 0 2 C0 1.34 0 0.68 0 0 Z " fill="#D6D73A" transform="translate(130,111)"/>
<path d="M0 0 C0.33 0 0.66 0 1 0 C1.28780586 3.05074215 1.45787911 5.96183742 1 9 C-1.5 11.0625 -1.5 11.0625 -4 12 C-3.52309796 10.37433394 -3.04340334 8.74948689 -2.5625 7.125 C-2.29566406 6.22007813 -2.02882812 5.31515625 -1.75390625 4.3828125 C-1 2 -1 2 0 0 Z " fill="#C7C92F" transform="translate(196,70)"/>
<path d="M0 0 C0.33 0 0.66 0 1 0 C1 1.98 1 3.96 1 6 C3.64 6 6.28 6 9 6 C8.67 6.99 8.34 7.98 8 9 C8 8.34 8 7.68 8 7 C7.01 7.33 6.02 7.66 5 8 C4.67 8.99 4.34 9.98 4 11 C4 10.34 4 9.68 4 9 C2.68 8.67 1.36 8.34 0 8 C0 5.36 0 2.72 0 0 Z " fill="#CDCF30" transform="translate(58,60)"/>
<path d="M0 0 C9.01531729 -0.63019694 9.01531729 -0.63019694 13.125 2 C13.74375 2.66 14.3625 3.32 15 4 C14.67 4.99 14.34 5.98 14 7 C13.43345703 6.04867187 13.43345703 6.04867187 12.85546875 5.078125 C10.45286403 2.38720771 8.83936045 2.24790971 5.3125 1.75 C4.31863281 1.60046875 3.32476562 1.4509375 2.30078125 1.296875 C1.54152344 1.19890625 0.78226562 1.1009375 0 1 C0 0.67 0 0.34 0 0 Z " fill="#EBEC40" transform="translate(80,111)"/>
<path d="M0 0 C0.625 1.75 0.625 1.75 1 4 C0.34 5.32 -0.32 6.64 -1 8 C-4.3 8 -7.6 8 -11 8 C-11 7.67 -11 7.34 -11 7 C-10.37351563 6.91363281 -9.74703125 6.82726562 -9.1015625 6.73828125 C-6.63217125 6.31373291 -4.35643158 5.85727584 -2 5 C-0.32386813 2.52985528 -0.32386813 2.52985528 0 0 Z " fill="#C2C431" transform="translate(191,83)"/>
<path d="M0 0 C0.66 0.33 1.32 0.66 2 1 C0.625 3 0.625 3 -1 5 C-1.66 5 -2.32 5 -3 5 C-3 5.99 -3 6.98 -3 8 C-1.02 8 0.96 8 3 8 C3 8.33 3 8.66 3 9 C0.69 9 -1.62 9 -4 9 C-4.25 6.75 -4.25 6.75 -4 4 C-2 1.6875 -2 1.6875 0 0 Z " fill="#60600D" transform="translate(126,53)"/>
<path d="M0 0 C0.99 0.33 1.98 0.66 3 1 C3.33 1.99 3.66 2.98 4 4 C3.34 4 2.68 4 2 4 C1.67 7.63 1.34 11.26 1 15 C0.67 15 0.34 15 0 15 C0 10.05 0 5.1 0 0 Z " fill="#FBFC2D" transform="translate(46,124)"/>
<path d="M0 0 C0.66 0 1.32 0 2 0 C4.4294516 3.6441774 4.16179575 5.71241272 4 10 C3.01 9.67 2.02 9.34 1 9 C0.67 6.03 0.34 3.06 0 0 Z " fill="#F1F23A" transform="translate(95,119)"/>
<path d="M0 0 C0.33 0 0.66 0 1 0 C1 2.97 1 5.94 1 9 C0.01 9.495 0.01 9.495 -1 10 C-1 8.68 -1 7.36 -1 6 C-1.66 6 -2.32 6 -3 6 C-2.67 4.68 -2.34 3.36 -2 2 C-1.67 2.33 -1.34 2.66 -1 3 C-0.67 2.01 -0.34 1.02 0 0 Z " fill="#FCFC31" transform="translate(98,113)"/>
<path d="M0 0 C0.99 0.99 1.98 1.98 3 3 C1.25 7.875 1.25 7.875 -1 9 C-1.125 2.25 -1.125 2.25 0 0 Z " fill="#DCDF3D" transform="translate(154,62)"/>
<path d="M0 0 C0 0.66 0 1.32 0 2 C-3.3 2 -6.6 2 -10 2 C-10 1.34 -10 0.68 -10 0 C-6.7169902 -1.6415049 -3.57454967 -0.51888624 0 0 Z " fill="#F6F73C" transform="translate(96,50)"/>
<path d="M0 0 C3.0916909 2.52956528 3.90931332 5.22454612 5 9 C4.34 9.66 3.68 10.32 3 11 C0 4.5 0 4.5 0 0 Z " fill="#D0D138" transform="translate(49,123)"/>
<path d="M0 0 C0.66 0.33 1.32 0.66 2 1 C1.67 1.99 1.34 2.98 1 4 C-1.0625 4.6875 -1.0625 4.6875 -3 5 C-3 7.31 -3 9.62 -3 12 C-3.33 12 -3.66 12 -4 12 C-4.49230769 4.61538462 -4.49230769 4.61538462 -2 1.5 C-1.34 1.005 -0.68 0.51 0 0 Z " fill="#58570A" transform="translate(125,64)"/>
<path d="M0 0 C0.66 0 1.32 0 2 0 C2 1.65 2 3.3 2 5 C2.99 5 3.98 5 5 5 C4.67 6.65 4.34 8.3 4 10 C3.34 9.67 2.68 9.34 2 9 C1.3671875 6.93359375 1.3671875 6.93359375 0.875 4.4375 C0.70742187 3.61121094 0.53984375 2.78492188 0.3671875 1.93359375 C0.24601563 1.29550781 0.12484375 0.65742187 0 0 Z " fill="#CFD047" transform="translate(186,60)"/>
<path d="M0 0 C2.64 0 5.28 0 8 0 C8 2.31 8 4.62 8 7 C6.68 6.67 5.36 6.34 4 6 C4.99 4.35 5.98 2.7 7 1 C4.69 1 2.38 1 0 1 C0 0.67 0 0.34 0 0 Z " fill="#C8CA2C" transform="translate(88,131)"/>
<path d="M0 0 C2.875 -0.1875 2.875 -0.1875 6 0 C6.66 0.99 7.32 1.98 8 3 C6.906875 2.979375 5.81375 2.95875 4.6875 2.9375 C1.05615809 2.81455548 1.05615809 2.81455548 -2 4 C-1.34 2.68 -0.68 1.36 0 0 Z " fill="#BBBD3A" transform="translate(80,118)"/>
<path d="M0 0 C2.29013653 3.4352048 2.17842973 4.985331 2 9 C0.68 9.33 -0.64 9.66 -2 10 C-2 9.34 -2 8.68 -2 8 C-1.34 8 -0.68 8 0 8 C0 5.36 0 2.72 0 0 Z " fill="#E1E342" transform="translate(183,74)"/>
<path d="M0 0 C1.65 0 3.3 0 5 0 C5 1.32 5 2.64 5 4 C3.35 4 1.7 4 0 4 C0 2.68 0 1.36 0 0 Z " fill="#F8FA38" transform="translate(130,70)"/>
<path d="M0 0 C1.32 0.99 2.64 1.98 4 3 C4.66 2.67 5.32 2.34 6 2 C5.67 3.32 5.34 4.64 5 6 C3.35 5.67 1.7 5.34 0 5 C0 3.35 0 1.7 0 0 Z " fill="#444411" transform="translate(158,55)"/>
<path d="M0 0 C3.63 0 7.26 0 11 0 C11.33 1.32 11.66 2.64 12 4 C11.505 3.690625 11.01 3.38125 10.5 3.0625 C7.02013219 1.58355618 3.75971491 1.37597149 0 1 C0 0.67 0 0.34 0 0 Z " fill="#B6B62D" transform="translate(192,112)"/>
<path d="M0 0 C0.99 0 1.98 0 3 0 C5.1519437 3.22791555 5.20086443 4.28400809 5 8 C2.74754119 5.31158141 1.11786042 3.35358125 0 0 Z " fill="#DFE23A" transform="translate(45,103)"/>
<path d="M0 0 C0.99 0.33 1.98 0.66 3 1 C3 1.99 3 2.98 3 4 C-0.3 4 -3.6 4 -7 4 C-7 3.67 -7 3.34 -7 3 C-4.69 3 -2.38 3 0 3 C0 2.01 0 1.02 0 0 Z " fill="#B7B821" transform="translate(173,76)"/>
<path d="M0 0 C0.66 0 1.32 0 2 0 C2.33 1.98 2.66 3.96 3 6 C3.99 6.33 4.98 6.66 6 7 C5.34 7.66 4.68 8.32 4 9 C0 4.5 0 4.5 0 0 Z " fill="#D3D540" transform="translate(166,64)"/>
<path d="M0 0 C0.33 0 0.66 0 1 0 C1.36923077 7.50769231 1.36923077 7.50769231 -0.5 10 C-0.995 10.33 -1.49 10.66 -2 11 C-1.125 3.375 -1.125 3.375 0 0 Z " fill="#56590E" transform="translate(193,57)"/>
<path d="M0 0 C0.99 0 1.98 0 3 0 C3.12375 0.969375 3.2475 1.93875 3.375 2.9375 C3.684375 4.4534375 3.684375 4.4534375 4 6 C4.66 6.33 5.32 6.66 6 7 C5.34 7.66 4.68 8.32 4 9 C0 2.25 0 2.25 0 0 Z " fill="#E2E33F" transform="translate(50,111)"/>
<path d="M0 0 C0 1.32 0 2.64 0 4 C-2.31 4 -4.62 4 -7 4 C-2.25 0 -2.25 0 0 0 Z " fill="#C9CD40" transform="translate(69,76)"/>
<path d="M0 0 C-1 2 -2 4 -3 6 C-3.66 6 -4.32 6 -5 6 C-5.33 5.01 -5.66 4.02 -6 3 C-2.25 0 -2.25 0 0 0 Z " fill="#E8EA3B" transform="translate(151,74)"/>
<path d="M0 0 C0.33 0 0.66 0 1 0 C0.67 2.31 0.34 4.62 0 7 C-0.99 7.33 -1.98 7.66 -3 8 C-1.125 1.125 -1.125 1.125 0 0 Z " fill="#DCDF3A" transform="translate(200,61)"/>
<path d="M0 0 C-1.175625 0.928125 -1.175625 0.928125 -2.375 1.875 C-4.96837647 3.89858661 -4.96837647 3.89858661 -7 6 C-6.625 3.0625 -6.625 3.0625 -6 0 C-3.50907189 -1.24546405 -2.58919267 -0.7767578 0 0 Z " fill="#E9EC40" transform="translate(128,53)"/>
</svg>
